<svg xmlns="http://www.w3.org/2000/svg" aria-hidden="true" style="position:absolute;width:0;height:0;overflow:hidden"><defs>
<symbol id="icon-LinkedIn-1-1" viewBox="0 0 32 32"><path fill="#0077b5" d="M26.2 4H5.8C4.84 4 4 4.724 4 5.688v20.623c0 .965.84 1.688 1.8 1.688h20.4c.96 0 1.8-.724 1.8-1.688V5.688C28 4.844 27.16 4 26.2 4zM11.08 24.623h-3.6V13.166h3.6v11.457zm-1.8-13.146c-1.2 0-2.04-.965-2.04-2.05s.96-2.05 2.04-2.05 2.04.965 2.04 2.05c.12 1.206-.84 2.05-2.04 2.05zM24.4 24.623h-3.6v-5.548c0-1.327 0-3.015-1.8-3.015s-2.16 1.447-2.16 3.015v5.668h-3.6V13.286h3.36v1.568c.48-.965 1.68-1.809 3.36-1.809 3.6 0 4.32 2.412 4.32 5.427v6.151h.12z" style="fill:var(--color1, #0077b5)"/>
</symbol>
<symbol id="icon-Dribbble-Logo-1" viewBox="0 0 32 32"><path fill="#e94b88" d="M16 29.333C8.648 29.333 2.667 23.352 2.667 16S8.648 2.667 16 2.667 29.333 8.648 29.333 16 23.352 29.333 16 29.333zm11.245-11.508c-.39-.123-3.525-1.058-7.094-.487 1.49 4.093 2.096 7.427 2.212 8.12a11.41 11.41 0 0 0 4.882-7.633zm-6.796 8.676c-.169-.999-.831-4.481-2.43-8.636l-.075.025c-6.424 2.238-8.73 6.693-8.934 7.112a11.37 11.37 0 0 0 11.439 1.499zm-12.91-2.869c.258-.442 3.384-5.617 9.257-7.515.148-.048.298-.093.449-.135a38.269 38.269 0 0 0-.923-1.933C10.635 15.751 5.116 15.68 4.617 15.67c-.003.116-.006.231-.006.348a11.345 11.345 0 0 0 2.928 7.615zm-2.687-9.947c.509.007 5.202.027 10.529-1.388a72.912 72.912 0 0 0-4.222-6.587 11.43 11.43 0 0 0-6.306 7.974zm8.479-8.74a60.766 60.766 0 0 1 4.25 6.667c4.05-1.518 5.764-3.822 5.969-4.114-1.371-1.218-3.017-2.086-4.796-2.53s-3.64-.452-5.423-.023zm11.485 3.87c-.24.325-2.148 2.771-6.359 4.49a35.574 35.574 0 0 1 1.001 2.238c3.789-.477 7.555.287 7.93.367a11.33 11.33 0 0 0-2.572-7.094z" style="fill:var(--color2, #e94b88)"/>
</symbol>
<symbol id="icon-Twitter-Logo-1" viewBox="0 0 32 32"><path fill="#26a7de" d="M29.333 9.163c-.92.394-1.97.657-3.153.788 1.051-.657 1.97-1.708 2.365-2.89-1.051.657-2.233 1.051-3.415 1.314-.92-1.051-2.365-1.708-3.941-1.708-3.021 0-5.386 2.365-5.386 5.255 0 .394 0 .788.131 1.182-4.466-.263-8.407-2.365-11.166-5.517a4.74 4.74 0 0 0-.788 2.627c0 1.839.92 3.415 2.365 4.466-.92 0-1.708-.263-2.496-.657v.131c0 2.627 1.839 4.729 4.335 5.255-.394.131-.92.131-1.445.131-.394 0-.657 0-1.051-.131.657 2.102 2.627 3.678 4.992 3.678-1.839 1.445-4.204 2.233-6.699 2.233-.394 0-.92 0-1.314-.131 2.365 1.576 5.255 2.365 8.276 2.365 9.852 0 15.369-8.144 15.369-15.107v-.657c1.445-.657 2.365-1.576 3.021-2.627z" style="fill:var(--color3, #26a7de)"/>
</symbol>
<symbol id="icon-Group-80" viewBox="0 0 91 32"><path fill="#8491a0" d="M55.987 5.333h-9.962c-5.978 0-10.825 4.163-10.825 10.141v7.028c4.364-8.921 14.971-15.189 20.787-17.169z" style="fill:var(--color4, #8491a0)"/><path fill="#8491a0" d="M36.267 27.733h8.828c5.979 0 10.825-4.847 10.825-10.825V5.851c-9.217 5.117-15.524 13.084-19.654 21.882z" style="fill:var(--color4, #8491a0)"/>
</symbol>
<symbol id="icon-Group-68" viewBox="0 0 91 32"><path fill="#8491a0" d="M59.494 1.067H31.29a.356.356 0 0 0-.123.69l25.511 8.352c.029.01.061.009.089-.003s.052-.032.067-.059l3.807-7.061a1.29 1.29 0 0 0-.028-1.285 1.307 1.307 0 0 0-1.117-.635zM30.94 30.59a.347.347 0 0 0 .261.334.348.348 0 0 0 .388-.171l4.907-9.09a1.302 1.302 0 0 1 1.145-.683H50.16a1.296 1.296 0 0 0 1.145-.684l3.741-6.936a.103.103 0 0 0-.041-.139.103.103 0 0 0-.051-.014H32.241a1.301 1.301 0 0 0-1.301 1.301v16.081z" style="fill:var(--color4, #8491a0)"/>
</symbol>
<symbol id="icon-Group-67" viewBox="0 0 91 32"><path fill="#8491a0" d="M28.28 15.038c-1.477 4.495-5.09 7.027-9.975 7.027-6.076 0-10.838-4.821-10.838-10.992C7.467 4.985 12.229-.001 18.1-.001c5.46 0 10.715 4.495 10.674 11.973H10.998c.451 4.373 3.818 6.947 7.307 6.947 2.997 0 5.131-1.43 6.281-3.882h3.694zm-3.366-6.17c-.862-3.433-3.736-5.721-6.815-5.721-2.914 0-5.993 2.125-6.896 5.721h13.711zm16.133 13.198c-3.038 0-5.666-1.634-7.184-3.677v12.545h-3.49V.532h3.366v3.35C35.217 1.758 37.926 0 41.046 0c6.075 0 10.55 4.945 10.55 10.993 0 6.13-4.475 11.073-10.55 11.073zm0-18.878c-3.9 0-7.184 3.514-7.184 7.805 0 4.331 3.284 7.886 7.184 7.886 3.941 0 7.061-3.555 7.061-7.886 0-4.29-3.12-7.805-7.061-7.805zM53.116.532h3.49v21.044h-3.49V.532zm5.048 10.555c0-6.141 5.008-11.08 11.348-11.08s11.349 4.939 11.349 11.08-5.054 10.991-11.349 10.991-11.348-4.85-11.348-10.991zM70.47 3.359c-5.776-.503-8.989 3.875-8.989 8.975 0 5.099 4.223 9.234 9.429 9.234a9.533 9.533 0 0 0 5.451-1.699l-1.307-3.312c1.35-1.4 2.131-3.336 2.131-5.474 0-4.227-2.965-7.372-6.715-7.723z" style="fill:var(--color4, #8491a0)"/><path fill="#8491a0" d="m66.361 13.202 10.295 8.337h5.478l-10.029-8.337z" style="fill:var(--color4, #8491a0)"/>
</symbol>
<symbol id="icon-Group-60" viewBox="0 0 91 32"><path fill="#8491a0" d="M41.219 15.101c2.865-.946 3.386-3.337 3.379-5.285-.006-2.974-2.118-5.548-8.372-5.548l-11.672-.002V26.62h11.642c6.291 0 8.605-3.21 8.605-6.426 0-3.894-3.582-5.093-3.582-5.093zM30.093 9.13l7.887.006c.887.156 1.533.906 1.533 1.786 0 .9-.692 1.747-1.606 1.871l-7.808.012-.005-3.674zm7.48 12.281h-7.48v-3.743l7.681.002c.953.109 1.676.897 1.676 1.833 0 1.02-.855 1.892-1.877 1.907zM70.938 4.27h19.724l-.011 4.879H76.418l.014 3.603h12.831v4.904H76.432v3.899h14.235l-.003 5.112H70.938V4.27zM59.465 4.299H47.537V26.66h5.477v-9.047l6.032-.007c1.727.026 3.071 1.433 3.071 3.168v5.867l5.361-.002-.011-7.217c0-3.343-3.249-4.331-3.249-4.331s3.322-.988 3.322-4.941c0-4.836-4.181-5.851-8.076-5.851zm2.99 6.938c-.098.735-.838 1.533-1.761 1.533l-7.698.003V9.192h7.702c.919 0 1.64.674 1.757 1.557v.488zM21.002 21.257c-.079.002-7.487.144-10.044-.104-4.12-.401-5.578-3.434-5.578-5.91 0-3.087 2.117-5.358 5.396-5.785 1.56-.203 10.091-.107 10.181-.107l.179.002.018-5.085-.181.001-9.656.018c-1.075.065-2.857.173-4.682.915a11.433 11.433 0 0 0-4.418 3.55 11.063 11.063 0 0 0-2.218 6.665c0 .761.06 1.515.184 2.239.695 3.39 2.931 6.196 6.137 7.705 1.083.473 2.752 1.041 6.119 1.229l1.814.038 6.909.007.019-5.382-.18.002z" style="fill:var(--color4, #8491a0)"/>
</symbol>
<symbol id="icon-Frame-16" viewBox="0 0 32 32"><path fill="#5221e6" d="M29.828 8.236H26.9l-.673-3.034a2.794 2.794 0 0 0-2.746-2.201H13.317c-1.33 0-2.459.905-2.746 2.201l-.673 3.034h-.695V6.941c0-.73-.595-1.323-1.325-1.323H3.592c-.731 0-1.325.594-1.325 1.323v1.295h-.094a2.173 2.173 0 0 0-2.172 2.169v14.688c0 1.196.975 2.169 2.172 2.169h10.075c1.773 1.147 3.886 1.814 6.152 1.814s4.378-.667 6.151-1.814h5.278a2.173 2.173 0 0 0 2.172-2.169V10.405a2.173 2.173 0 0 0-2.172-2.169zM11.79 5.471c.16-.72.787-1.223 1.526-1.223H23.48c.739 0 1.366.503 1.526 1.223l.613 2.765h-1.07c-1.773-1.147-3.886-1.814-6.151-1.814s-4.378.667-6.152 1.814h-1.07l.613-2.765zm-8.274 1.47c0-.042.034-.075.075-.075h4.286c.042 0 .075.034.075.075v1.295H3.515V6.941zm1.503 19.072v-6.777a.624.624 0 0 0-1.25 0v6.777H2.172a.922.922 0 0 1-.922-.921V10.404c0-.508.414-.921.922-.921h8.477c-2.212 2.068-3.597 5.008-3.597 8.265s1.385 6.197 3.597 8.265H5.018zm19.15 0a10.083 10.083 0 0 1-11.542 0c-2.613-1.823-4.325-4.848-4.325-8.265s1.712-6.441 4.325-8.265a10.083 10.083 0 0 1 11.542 0c2.613 1.823 4.325 4.848 4.325 8.265s-1.712 6.441-4.325 8.265zm6.581-.921a.923.923 0 0 1-.922.921h-3.68c2.212-2.068 3.597-5.008 3.597-8.265s-1.385-6.197-3.597-8.265h3.68c.509 0 .922.413.922.921v14.688z" style="fill:var(--color5, #5221e6)"/><path fill="#5221e6" d="M18.37 10.111c-4.248 0-7.704 3.456-7.704 7.704s3.456 7.704 7.704 7.704c.619 0 1.235-.074 1.831-.219a.586.586 0 1 0-.278-1.14 6.537 6.537 0 0 1-8.083-6.344 6.537 6.537 0 0 1 6.53-6.53 6.537 6.537 0 0 1 6.53 6.53 6.488 6.488 0 0 1-1.121 3.659.586.586 0 1 0 .972.659 7.662 7.662 0 0 0 1.323-4.318c0-4.248-3.456-7.704-7.704-7.704zM4.741 11.296c-1.307 0-2.37 1.063-2.37 2.37s1.063 2.37 2.37 2.37c1.307 0 2.37-1.063 2.37-2.37s-1.063-2.37-2.37-2.37zm0 3.468a1.098 1.098 0 0 1 0-2.194 1.098 1.098 0 0 1 0 2.194z" style="fill:var(--color5, #5221e6)"/><path fill="#5221e6" d="M23.692 23.625a.644.644 0 0 0-.089-.213.532.532 0 0 0-.163-.164.595.595 0 0 0-.658 0c-.032.022-.062.047-.09.074s-.052.057-.073.09a.625.625 0 0 0-.089.213.571.571 0 0 0 .089.445.532.532 0 0 0 .163.163.595.595 0 0 0 .748-.073.597.597 0 0 0 .162-.535z" style="fill:var(--color5, #5221e6)"/>
</symbol>
<symbol id="icon-Group-62" viewBox="0 0 32 32"><path fill="none" stroke="#5221e6" stroke-width="2" d="M31 16c0 8.284-6.716 15-15 15S1 24.284 1 16C1 7.716 7.716 1 16 1s15 6.716 15 15z" style="stroke:var(--color5, #5221e6)"/><path fill="#5221e6" d="m21 16-7.5 4.33v-8.66L21 16z" style="fill:var(--color5, #5221e6)"/>
</symbol>
<symbol id="icon-Group-20" viewBox="0 0 32 32"><path fill="#5221e6" d="m17.221 1.2 13.578 13.578 1.2-1.2L18.421 0l-1.2 1.2zM19.234 7.601a2.546 2.546 0 0 0-2.803-.54L7.008 11.1a4.227 4.227 0 0 0-2.352 2.56 469.703 469.703 0 0 0-2.981 9.346A130.81 130.81 0 0 0 .5 27.045c-.148.552-.27 1.036-.355 1.427-.079.364-.144.723-.144.981v.352l2.194 2.194h.352c.259 0 .617-.065.981-.144.391-.085.875-.206 1.427-.355 1.105-.297 2.51-.709 4.039-1.175a467.62 467.62 0 0 0 9.346-2.981 4.23 4.23 0 0 0 2.56-2.352l4.039-9.423a2.546 2.546 0 0 0-.54-2.803l-5.164-5.164zm-2.135 1.021a.848.848 0 0 1 .934.18l5.164 5.164a.848.848 0 0 1 .18.934l-4.039 9.424a2.528 2.528 0 0 1-1.531 1.408 467.251 467.251 0 0 1-9.31 2.97c-1.522.464-2.906.87-3.984 1.16-.539.145-.994.258-1.347.335l-.207.043 8.671-8.672a2.547 2.547 0 0 0 2.898-4.098 2.546 2.546 0 0 0-4.098 2.898L1.758 29.04c.012-.063.027-.132.043-.207.077-.353.19-.808.335-1.347a129.78 129.78 0 0 1 1.16-3.984 467.251 467.251 0 0 1 2.97-9.31 2.528 2.528 0 0 1 1.408-1.531l9.424-4.039z" style="fill:var(--color5, #5221e6)"/>
</symbol>
<symbol id="icon-Vector-3" viewBox="0 0 32 32"><path fill="#5221e6" d="M30.222 23.111v7.111H17.778v-7.111h12.444zm0-21.333V16H17.778V1.778h12.444zM10.667 16H1.778v14.222h8.889V16zm0-14.222v7.111H1.778V1.778h8.889zM17.778 0C16.796 0 16 .796 16 1.778V16c0 .982.796 1.778 1.778 1.778h12.444c.982 0 1.778-.796 1.778-1.778V1.778C32 .796 31.204 0 30.222 0H17.778zm0 21.333c-.982 0-1.778.796-1.778 1.778v7.111c0 .982.796 1.778 1.778 1.778h12.444c.982 0 1.778-.796 1.778-1.778v-7.111c0-.982-.796-1.778-1.778-1.778H17.778zM0 16c0-.982.796-1.778 1.778-1.778h8.889c.982 0 1.778.796 1.778 1.778v14.222c0 .982-.796 1.778-1.778 1.778H1.778A1.778 1.778 0 0 1 0 30.222V16zM1.778 0C.796 0 0 .796 0 1.778v7.111c0 .982.796 1.778 1.778 1.778h8.889c.982 0 1.778-.796 1.778-1.778V1.778C12.445.796 11.649 0 10.667 0H1.778z" style="fill:var(--color5, #5221e6)"/>
</symbol>
<symbol id="icon-Vector-6" viewBox="0 0 105 32">
<path fill="#fff" style="fill: var(--color1, #fff)" d="M6.48 31.6h-6.48v-31.6h7.24c1.493 0 2.707 0.080 3.64 0.24 0.96 0.133 1.707 0.427 2.24 0.88s0.893 1.107 1.080 1.96c0.213 0.827 0.32 1.947 0.32 3.36v3.28c0 0.827-0.093 1.507-0.28 2.040s-0.427 0.96-0.72 1.28c-0.267 0.32-0.56 0.56-0.88 0.72-0.32 0.133-0.613 0.227-0.88 0.28v0.16c0.4 0.107 0.76 0.267 1.080 0.48 0.347 0.187 0.64 0.48 0.88 0.88s0.427 0.933 0.56 1.6c0.16 0.64 0.24 1.467 0.24 2.48v11.96h-6.52v-14c0-0.347-0.040-0.573-0.12-0.68-0.080-0.133-0.293-0.2-0.64-0.2h-0.76v14.88zM6.48 11.64h0.76c0.347 0 0.56-0.053 0.64-0.16 0.080-0.133 0.12-0.373 0.12-0.72v-4.32c0-0.347-0.040-0.573-0.12-0.68-0.080-0.133-0.293-0.2-0.64-0.2h-0.76v6.080zM29.702 26.92c0 1.12-0.093 2.013-0.28 2.68-0.16 0.667-0.48 1.187-0.96 1.56-0.453 0.347-1.093 0.573-1.92 0.68-0.8 0.107-1.853 0.16-3.16 0.16-1.28 0-2.333-0.053-3.16-0.16s-1.467-0.333-1.92-0.68c-0.453-0.373-0.773-0.893-0.96-1.56-0.16-0.667-0.24-1.56-0.24-2.68v-14.6c0-1.12 0.080-2.013 0.24-2.68 0.187-0.667 0.507-1.173 0.96-1.52 0.453-0.373 1.093-0.613 1.92-0.72s1.88-0.16 3.16-0.16c1.307 0 2.36 0.053 3.16 0.16 0.827 0.107 1.467 0.347 1.92 0.72 0.48 0.347 0.8 0.853 0.96 1.52 0.187 0.667 0.28 1.56 0.28 2.68v14.6zM22.662 25.8c0 0.347 0.040 0.587 0.12 0.72 0.080 0.107 0.28 0.16 0.6 0.16 0.347 0 0.56-0.053 0.64-0.16 0.080-0.133 0.12-0.373 0.12-0.72v-12.36c0-0.347-0.040-0.573-0.12-0.68-0.080-0.133-0.293-0.2-0.64-0.2-0.32 0-0.52 0.067-0.6 0.2-0.080 0.107-0.12 0.333-0.12 0.68v12.36zM38.298 0v8.72c0.347-0.48 0.773-0.813 1.28-1 0.533-0.187 1.187-0.28 1.96-0.28s1.4 0.093 1.88 0.28c0.48 0.16 0.84 0.427 1.080 0.8 0.267 0.373 0.44 0.88 0.52 1.52 0.107 0.613 0.16 1.373 0.16 2.28v14.6c0 0.933-0.053 1.72-0.16 2.36-0.080 0.613-0.253 1.107-0.52 1.48s-0.653 0.64-1.16 0.8c-0.507 0.16-1.16 0.24-1.96 0.24-0.907 0-1.64-0.093-2.2-0.28-0.56-0.213-0.987-0.547-1.28-1v1.080h-5.32v-31.6h5.72zM39.618 13.44c0-0.32-0.040-0.547-0.12-0.68-0.053-0.133-0.227-0.2-0.52-0.2-0.267 0-0.467 0.053-0.6 0.16-0.107 0.080-0.187 0.213-0.24 0.4v13c0.053 0.187 0.133 0.333 0.24 0.44 0.133 0.080 0.333 0.12 0.6 0.12 0.293 0 0.467-0.067 0.52-0.2 0.080-0.133 0.12-0.36 0.12-0.68v-12.36zM53.807 4.16h-5.68v-4.16h5.68v4.16zM53.807 31.6h-5.68v-23.96h5.68v23.96zM70.071 31.6h-5.76v-18.16c0-0.32-0.040-0.547-0.12-0.68-0.054-0.133-0.227-0.2-0.52-0.2-0.267 0-0.467 0.053-0.6 0.16-0.107 0.080-0.2 0.213-0.28 0.4v18.48h-5.72v-23.96h5.32v1.080c0.293-0.453 0.72-0.773 1.28-0.96 0.56-0.213 1.293-0.32 2.2-0.32 0.8 0 1.466 0.080 2 0.24 0.56 0.16 1 0.427 1.32 0.8s0.546 0.88 0.68 1.52c0.133 0.613 0.2 1.387 0.2 2.32v19.28zM78.925 31.6h-5.8v-5.64h5.8v5.64zM104.573 0l-3.28 31.6h-8.16l-1.080-22.92h-0.16l-1.32 22.92h-8.28l-2.44-31.6h6.52l0.68 22.16h0.16l0.96-22.16h8l0.68 22.16h0.16l1-22.16h6.56z"></path>
</symbol>
<symbol id="icon-dribbleline-mobile" viewBox="0 0 284 32">
<path d="M0 7.111c0-3.927 3.184-7.111 7.111-7.111h270.222c3.927 0 7.111 3.184 7.111 7.111v24.889h-284.444v-24.889z"></path>
</symbol>
<symbol id="icon-dribbleline-tablet" viewBox="0 0 612 32">
<path d="M0 7.111c0-3.927 3.184-7.111 7.111-7.111h597.333c3.927 0 7.111 3.184 7.111 7.111v24.889h-611.556v-24.889z"></path>
</symbol>
<symbol id="icon-dribbleline-desktop" viewBox="0 0 956 32">
<path d="M0 7.111c0-3.927 3.184-7.111 7.111-7.111h942.222c3.929 0 7.111 3.184 7.111 7.111v24.889h-956.444v-24.889z"></path>
</symbol>
<symbol id="icon-dribble-circle" viewBox="0 0 32 32">
<path d="M32 16c0 8.837-7.163 16-16 16s-16-7.163-16-16c0-8.837 7.163-16 16-16s16 7.163 16 16z"></path>
</symbol>
</defs></svg>