<svg xmlns="http://www.w3.org/2000/svg" aria-hidden="true"
    style="position:absolute;width:0;height:0;overflow:hidden">
    <defs>
        <symbol id="icon-LinkedIn-1-1" viewBox="0 0 32 32">
            <path fill="#0077b5"
                d="M26.2 4H5.8C4.84 4 4 4.724 4 5.688v20.623c0 .965.84 1.688 1.8 1.688h20.4c.96 0 1.8-.724 1.8-1.688V5.688C28 4.844 27.16 4 26.2 4zM11.08 24.623h-3.6V13.166h3.6v11.457zm-1.8-13.146c-1.2 0-2.04-.965-2.04-2.05s.96-2.05 2.04-2.05 2.04.965 2.04 2.05c.12 1.206-.84 2.05-2.04 2.05zM24.4 24.623h-3.6v-5.548c0-1.327 0-3.015-1.8-3.015s-2.16 1.447-2.16 3.015v5.668h-3.6V13.286h3.36v1.568c.48-.965 1.68-1.809 3.36-1.809 3.6 0 4.32 2.412 4.32 5.427v6.151h.12z"
                style="fill:var(--color1, #0077b5)" />
        </symbol>
        <symbol id="icon-Dribbble-Logo-1" viewBox="0 0 32 32">
            <path fill="#e94b88"
                d="M16 29.333C8.648 29.333 2.667 23.352 2.667 16S8.648 2.667 16 2.667 29.333 8.648 29.333 16 23.352 29.333 16 29.333zm11.245-11.508c-.39-.123-3.525-1.058-7.094-.487 1.49 4.093 2.096 7.427 2.212 8.12a11.41 11.41 0 0 0 4.882-7.633zm-6.796 8.676c-.169-.999-.831-4.481-2.43-8.636l-.075.025c-6.424 2.238-8.73 6.693-8.934 7.112a11.37 11.37 0 0 0 11.439 1.499zm-12.91-2.869c.258-.442 3.384-5.617 9.257-7.515.148-.048.298-.093.449-.135a38.269 38.269 0 0 0-.923-1.933C10.635 15.751 5.116 15.68 4.617 15.67c-.003.116-.006.231-.006.348a11.345 11.345 0 0 0 2.928 7.615zm-2.687-9.947c.509.007 5.202.027 10.529-1.388a72.912 72.912 0 0 0-4.222-6.587 11.43 11.43 0 0 0-6.306 7.974zm8.479-8.74a60.766 60.766 0 0 1 4.25 6.667c4.05-1.518 5.764-3.822 5.969-4.114-1.371-1.218-3.017-2.086-4.796-2.53s-3.64-.452-5.423-.023zm11.485 3.87c-.24.325-2.148 2.771-6.359 4.49a35.574 35.574 0 0 1 1.001 2.238c3.789-.477 7.555.287 7.93.367a11.33 11.33 0 0 0-2.572-7.094z"
                style="fill:var(--color2, #e94b88)" />
        </symbol>
        <symbol id="icon-Twitter-Logo-1" viewBox="0 0 32 32">
            <path fill="#26a7de"
                d="M29.333 9.163c-.92.394-1.97.657-3.153.788 1.051-.657 1.97-1.708 2.365-2.89-1.051.657-2.233 1.051-3.415 1.314-.92-1.051-2.365-1.708-3.941-1.708-3.021 0-5.386 2.365-5.386 5.255 0 .394 0 .788.131 1.182-4.466-.263-8.407-2.365-11.166-5.517a4.74 4.74 0 0 0-.788 2.627c0 1.839.92 3.415 2.365 4.466-.92 0-1.708-.263-2.496-.657v.131c0 2.627 1.839 4.729 4.335 5.255-.394.131-.92.131-1.445.131-.394 0-.657 0-1.051-.131.657 2.102 2.627 3.678 4.992 3.678-1.839 1.445-4.204 2.233-6.699 2.233-.394 0-.92 0-1.314-.131 2.365 1.576 5.255 2.365 8.276 2.365 9.852 0 15.369-8.144 15.369-15.107v-.657c1.445-.657 2.365-1.576 3.021-2.627z"
                style="fill:var(--color3, #26a7de)" />
        </symbol>
        <symbol id="icon-Group-80" viewBox="0 0 91 32">
            <path fill="#8491a0"
                d="M55.987 5.333h-9.962c-5.978 0-10.825 4.163-10.825 10.141v7.028c4.364-8.921 14.971-15.189 20.787-17.169z"
                style="fill:var(--color4, #8491a0)" />
            <path fill="#8491a0"
                d="M36.267 27.733h8.828c5.979 0 10.825-4.847 10.825-10.825V5.851c-9.217 5.117-15.524 13.084-19.654 21.882z"
                style="fill:var(--color4, #8491a0)" />
        </symbol>
        <symbol id="icon-Group-68" viewBox="0 0 91 32">
            <path fill="#8491a0"
                d="M59.494 1.067H31.29a.356.356 0 0 0-.123.69l25.511 8.352c.029.01.061.009.089-.003s.052-.032.067-.059l3.807-7.061a1.29 1.29 0 0 0-.028-1.285 1.307 1.307 0 0 0-1.117-.635zM30.94 30.59a.347.347 0 0 0 .261.334.348.348 0 0 0 .388-.171l4.907-9.09a1.302 1.302 0 0 1 1.145-.683H50.16a1.296 1.296 0 0 0 1.145-.684l3.741-6.936a.103.103 0 0 0-.041-.139.103.103 0 0 0-.051-.014H32.241a1.301 1.301 0 0 0-1.301 1.301v16.081z"
                style="fill:var(--color4, #8491a0)" />
        </symbol>
        <symbol id="icon-Group-67" viewBox="0 0 91 32">
            <path fill="#8491a0"
                d="M28.28 15.038c-1.477 4.495-5.09 7.027-9.975 7.027-6.076 0-10.838-4.821-10.838-10.992C7.467 4.985 12.229-.001 18.1-.001c5.46 0 10.715 4.495 10.674 11.973H10.998c.451 4.373 3.818 6.947 7.307 6.947 2.997 0 5.131-1.43 6.281-3.882h3.694zm-3.366-6.17c-.862-3.433-3.736-5.721-6.815-5.721-2.914 0-5.993 2.125-6.896 5.721h13.711zm16.133 13.198c-3.038 0-5.666-1.634-7.184-3.677v12.545h-3.49V.532h3.366v3.35C35.217 1.758 37.926 0 41.046 0c6.075 0 10.55 4.945 10.55 10.993 0 6.13-4.475 11.073-10.55 11.073zm0-18.878c-3.9 0-7.184 3.514-7.184 7.805 0 4.331 3.284 7.886 7.184 7.886 3.941 0 7.061-3.555 7.061-7.886 0-4.29-3.12-7.805-7.061-7.805zM53.116.532h3.49v21.044h-3.49V.532zm5.048 10.555c0-6.141 5.008-11.08 11.348-11.08s11.349 4.939 11.349 11.08-5.054 10.991-11.349 10.991-11.348-4.85-11.348-10.991zM70.47 3.359c-5.776-.503-8.989 3.875-8.989 8.975 0 5.099 4.223 9.234 9.429 9.234a9.533 9.533 0 0 0 5.451-1.699l-1.307-3.312c1.35-1.4 2.131-3.336 2.131-5.474 0-4.227-2.965-7.372-6.715-7.723z"
                style="fill:var(--color4, #8491a0)" />
            <path fill="#8491a0" d="m66.361 13.202 10.295 8.337h5.478l-10.029-8.337z"
                style="fill:var(--color4, #8491a0)" />
        </symbol>
        <symbol id="icon-Group-60" viewBox="0 0 91 32">
            <path fill="#8491a0"
                d="M41.219 15.101c2.865-.946 3.386-3.337 3.379-5.285-.006-2.974-2.118-5.548-8.372-5.548l-11.672-.002V26.62h11.642c6.291 0 8.605-3.21 8.605-6.426 0-3.894-3.582-5.093-3.582-5.093zM30.093 9.13l7.887.006c.887.156 1.533.906 1.533 1.786 0 .9-.692 1.747-1.606 1.871l-7.808.012-.005-3.674zm7.48 12.281h-7.48v-3.743l7.681.002c.953.109 1.676.897 1.676 1.833 0 1.02-.855 1.892-1.877 1.907zM70.938 4.27h19.724l-.011 4.879H76.418l.014 3.603h12.831v4.904H76.432v3.899h14.235l-.003 5.112H70.938V4.27zM59.465 4.299H47.537V26.66h5.477v-9.047l6.032-.007c1.727.026 3.071 1.433 3.071 3.168v5.867l5.361-.002-.011-7.217c0-3.343-3.249-4.331-3.249-4.331s3.322-.988 3.322-4.941c0-4.836-4.181-5.851-8.076-5.851zm2.99 6.938c-.098.735-.838 1.533-1.761 1.533l-7.698.003V9.192h7.702c.919 0 1.64.674 1.757 1.557v.488zM21.002 21.257c-.079.002-7.487.144-10.044-.104-4.12-.401-5.578-3.434-5.578-5.91 0-3.087 2.117-5.358 5.396-5.785 1.56-.203 10.091-.107 10.181-.107l.179.002.018-5.085-.181.001-9.656.018c-1.075.065-2.857.173-4.682.915a11.433 11.433 0 0 0-4.418 3.55 11.063 11.063 0 0 0-2.218 6.665c0 .761.06 1.515.184 2.239.695 3.39 2.931 6.196 6.137 7.705 1.083.473 2.752 1.041 6.119 1.229l1.814.038 6.909.007.019-5.382-.18.002z"
                style="fill:var(--color4, #8491a0)" />
        </symbol>
        <symbol id="icon-placeformom" viewBox="0 0 197 32">
            <path fill="#8491a0" style="fill: var(--color1, #8491a0)"
                d="M10.194 11.141c0-0.422-0.143-0.786-0.43-1.092-0.258-0.283-0.629-0.46-1.040-0.46-0.010 0-0.019 0-0.029 0l0.001-0c-1.338 0-2.729 1.425-4.173 4.274-1.338 2.574-2.007 4.621-2.007 6.139 0 1.373 0.467 2.058 1.402 2.058 1.316 0 2.633-1.33 3.949-3.988 0.827-1.641 1.547-3.558 2.059-5.559l0.044-0.201c0.148-0.591 0.224-0.982 0.224-1.171zM14.047 19.117v0.064c-0.016 0.027-0.027 0.059-0.031 0.094l-0 0.001c-0.445 1.075-1.030 1.994-1.752 2.753-0.913 0.929-1.869 1.393-2.867 1.393-1.147 0-1.719-0.685-1.719-2.057 0-0.358 0.031-0.707 0.095-1.044-1.422 2.068-2.972 3.101-4.652 3.101-0.998 0-1.783-0.39-2.355-1.17-0.512-0.676-0.765-1.53-0.765-2.565 0-2.109 0.924-4.442 2.771-6.995 1.975-2.701 3.981-4.051 6.020-4.051 0.87 0 1.604 0.38 2.199 1.139 0.169-0.632 0.509-0.948 1.019-0.948 0.977 0 1.466 0.169 1.466 0.506 0 0.064-0.243 0.823-0.732 2.278-1.892 5.635-2.835 8.874-2.835 9.718 0 0.402 0.147 0.602 0.445 0.602 0.594 0 1.28-0.538 2.054-1.614 0.776-1.075 1.174-1.614 1.194-1.614 0.298 0 0.447 0.137 0.447 0.411zM30.23 6.456c0-1.772-0.43-3.044-1.289-3.813-0.861-0.771-2.163-1.146-3.904-1.124-1.358 0-2.038 0.294-2.038 0.886v9.020c0.786 0.128 1.358 0.189 1.72 0.189 3.695-0.019 5.531-1.741 5.51-5.158zM33.989 6.456c0 4.22-2.879 6.33-8.632 6.33-0.745 0-1.53-0.041-2.358-0.125v5.635c0 1.984 0.351 3.123 1.051 3.418 0.042 0.022 0.499 0.159 1.37 0.412 0.509 0.127 0.754 0.294 0.733 0.506-0.022 0.253-0.192 0.38-0.511 0.38h-8.664c-0.317 0-0.488-0.127-0.508-0.38-0.022-0.21 0.221-0.379 0.732-0.506 0.87-0.253 1.326-0.39 1.37-0.412 0.7-0.294 1.050-1.434 1.050-3.418v-12.978c0-1.984-0.349-3.123-1.050-3.418-0.044-0.022-0.499-0.159-1.37-0.412-0.511-0.127-0.755-0.294-0.732-0.507 0.020-0.253 0.191-0.379 0.508-0.379h9.334c2.209 0 3.992 0.453 5.35 1.361 1.551 1.011 2.327 2.51 2.327 4.494zM41.876 22.63c-0.022 0.253-0.192 0.38-0.511 0.38h-6.88c-0.32 0-0.489-0.127-0.509-0.38-0.022-0.168 0.223-0.316 0.732-0.443 0.658-0.147 1.115-0.305 1.37-0.474s0.393-0.634 0.415-1.394v-16.617c0-0.568-0.054-0.945-0.16-1.124s-0.425-0.269-0.955-0.269c-0.808 0-1.211-0.127-1.211-0.38 0-0.273 0.255-0.463 0.764-0.57 1.233-0.253 2.442-0.602 3.633-1.043 0.147-0.044 0.265-0.064 0.349-0.064 0.212 0 0.339 0.122 0.383 0.364 0.042 0.243 0.064 0.755 0.064 1.536v16.141c0 2.132 0.137 3.272 0.413 3.419 0.148 0.086 0.605 0.223 1.37 0.412 0.509 0.148 0.754 0.316 0.733 0.506zM51.273 18.784v-3.528c-1.572 0.294-2.751 0.652-3.535 1.070-1.275 0.716-1.911 1.702-1.911 2.962 0 0.671 0.196 1.212 0.589 1.622s0.928 0.614 1.609 0.614c0.849 0 1.603-0.264 2.262-0.788 0.658-0.525 0.986-1.176 0.986-1.952zM57.102 20.827c-0.573 1.626-1.572 2.437-2.995 2.437-1.528 0-2.463-0.768-2.802-2.31-1.615 1.541-3.25 2.31-4.906 2.31-1.062 0-1.901-0.305-2.516-0.915s-0.924-1.443-0.924-2.496c0-1.915 1.041-3.346 3.123-4.293 1.188-0.526 2.918-0.937 5.192-1.233 0.064-1.999-0.096-3.293-0.479-3.884-0.317-0.526-1.039-0.778-2.166-0.758-0.934 0.022-1.55 0.316-1.848 0.887l-0.444 1.582c-0.212 0.57-0.669 0.855-1.371 0.855-0.934 0-1.4-0.401-1.4-1.203 0-1.034 0.646-1.836 1.942-2.406 0.998-0.422 2.125-0.632 3.377-0.632 3.441 0.020 5.161 1.199 5.161 3.537v7.799c0 1.137 0.319 1.695 0.955 1.673 0.425 0 0.781-0.227 1.068-0.681 0.287-0.453 0.494-0.68 0.622-0.68 0 0 0.001 0 0.001 0 0.131 0 0.249 0.054 0.333 0.142l0 0c0.096 0.095 0.122 0.186 0.079 0.269zM69.601 20.838c-1.381 1.786-3.080 2.678-5.097 2.678-2.103 0-3.78-0.666-5.033-1.997-1.254-1.331-1.88-3.067-1.88-5.203 0-2.135 0.696-3.932 2.086-5.391 1.391-1.459 3.159-2.179 5.304-2.158 0.977 0 1.933 0.211 2.867 0.634 1.169 0.527 1.752 1.224 1.752 2.089 0 0.823-0.425 1.234-1.275 1.234-0.509 0-0.908-0.242-1.194-0.727-0.287-0.486-0.557-0.972-0.812-1.457-0.383-0.506-0.914-0.76-1.594-0.76-1.402 0-2.463 0.678-3.185 2.031-0.553 1.079-0.828 2.391-0.828 3.935 0 1.692 0.339 3.122 1.019 4.284 0.806 1.439 1.985 2.158 3.535 2.158 0.892 0 1.741-0.32 2.548-0.96 0.17-0.15 0.69-0.695 1.562-1.633 0.106-0.108 0.201-0.161 0.285-0.161 0.192 0 0.288 0.16 0.288 0.479 0 0.32-0.118 0.627-0.351 0.925zM81.094 13.51c-0.128-2.508-1.137-3.75-3.026-3.73-2.039 0.022-3.26 1.477-3.665 4.369h3.982c1.827 0 2.729-0.214 2.708-0.639zM84.12 14.844c0 0.233-0.116 0.37-0.351 0.412h-9.492c-0.022 0.294-0.032 0.517-0.032 0.666 0 1.731 0.319 3.132 0.956 4.209 0.806 1.329 2.016 1.994 3.631 1.994 1.062 0 1.964-0.232 2.707-0.696 0.384-0.253 0.945-0.771 1.688-1.551 0.072-0.077 0.174-0.125 0.287-0.125h0c0.275 0 0.415 0.125 0.415 0.379 0 0.084-0.032 0.179-0.096 0.284-1.211 2.048-3.123 3.059-5.734 3.040-2.081-0.023-3.758-0.691-5.032-2.010-1.275-1.318-1.912-3.003-1.912-5.050 0-2.109 0.627-3.892 1.879-5.349 1.339-1.54 3.048-2.3 5.129-2.278 1.592 0 2.92 0.474 3.982 1.425 1.295 1.139 1.953 2.689 1.975 4.652zM102.787 2.058c0 0.002 0 0.004 0 0.006 0 0.324-0.128 0.617-0.336 0.833l0-0c-0.196 0.223-0.482 0.364-0.801 0.364-0.004 0-0.008-0-0.011-0h0.001c-0.509 0-0.914-0.369-1.211-1.107s-0.69-1.108-1.178-1.108c-1.105 0-1.976 0.646-2.612 1.938-0.234 0.445-0.605 1.558-1.116 3.337l-0.858 2.986h3.151c0.276 0 0.416 0.131 0.416 0.392 0 0.435-0.236 0.653-0.703 0.653h-3.121l-3.186 11.93c-0.744 2.778-1.476 4.828-2.198 6.154-1.317 2.376-2.963 3.566-4.938 3.566-0.742 0-1.402-0.211-1.975-0.632-0.573-0.422-0.86-0.982-0.86-1.678 0-0.95 0.431-1.425 1.289-1.425 0.589 0 0.955 0.232 1.101 0.696 0.042 0.169 0.064 0.622 0.064 1.361 0 0.486 0.224 0.73 0.671 0.73 0.896 0 1.686-0.803 2.368-2.404 0.298-0.695 0.671-1.885 1.117-3.571l3.904-14.726h-3.315c-0.189 0-0.285-0.12-0.285-0.358 0-0.458 0.201-0.686 0.607-0.686h3.185c0.849-2.723 1.677-4.716 2.483-5.981 1.381-2.217 3.090-3.324 5.129-3.324 0.744 0 1.434 0.159 2.071 0.474 0.764 0.38 1.147 0.909 1.147 1.585zM105.847 12.186c0-1.731-0.584-2.596-1.752-2.596-1.338 0-2.57 1.404-3.694 4.211-0.956 2.383-1.434 4.378-1.434 5.981 0 1.837 0.625 2.753 1.879 2.753 1.316 0 2.527-1.423 3.631-4.273 0.913-2.406 1.37-4.431 1.37-6.077zM108.172 13.864c0 2.195-0.657 4.273-1.975 6.235-1.485 2.216-3.281 3.324-5.382 3.324-1.38 0-2.442-0.549-3.186-1.646-0.68-0.95-1.019-2.131-1.019-3.546 0-2.172 0.669-4.262 2.007-6.267 1.508-2.236 3.302-3.354 5.382-3.354 1.381 0 2.442 0.548 3.187 1.645 0.658 0.972 0.986 2.173 0.986 3.61zM121.071 10.35c0 0.38-0.113 0.727-0.335 1.044-0.223 0.316-0.516 0.474-0.877 0.474-0.36 0-0.636-0.22-0.828-0.663s-0.445-0.666-0.763-0.666c-1.169 0-3.081 4.157-5.734 12.471h-2.484c0.637-2.131 1.274-4.273 1.911-6.426 0.998-3.397 1.498-5.307 1.498-5.729 0-0.358-0.16-0.538-0.477-0.538-0.575 0-1.116 0.348-1.626 1.044-0.17 0.211-0.509 0.791-1.019 1.741-0.128 0.253-0.307 0.38-0.541 0.38-0.32 0-0.477-0.128-0.477-0.38l0.031-0.128c0.276-1.053 0.818-2.013 1.626-2.879 0.911-0.95 1.879-1.425 2.898-1.425 1.125 0 1.688 0.644 1.688 1.932 0 0.401-0.074 0.896-0.223 1.487-0.15 0.506-0.287 1.002-0.415 1.487 1.613-3.27 3.132-4.906 4.554-4.906 0.468 0 0.851 0.164 1.148 0.492 0.297 0.326 0.447 0.722 0.447 1.187zM150.153 22.63c-0.020 0.255-0.191 0.381-0.509 0.381h-8.41c-0.319 0-0.489-0.128-0.509-0.38-0.022-0.211 0.223-0.38 0.732-0.507 0.87-0.253 1.327-0.39 1.37-0.411 0.701-0.296 1.051-1.434 1.051-3.419v-14.939l-8.219 19.244c-0.189 0.443-0.339 0.666-0.445 0.666s-0.285-0.285-0.541-0.855l-7.072-16.143c-0.368-0.849-0.751-1.566-1.185-2.248l0.038 0.065 0.192 14.212c0.020 1.012 0.064 1.699 0.128 2.058 0.147 0.695 0.456 1.149 0.924 1.361 0.041 0.020 0.498 0.157 1.368 0.411 0.509 0.128 0.754 0.296 0.733 0.507-0.022 0.253-0.191 0.38-0.511 0.38h-6.816c-0.319 0-0.489-0.128-0.509-0.38-0.022-0.211 0.223-0.38 0.732-0.507 0.87-0.253 1.327-0.39 1.37-0.411 0.467-0.211 0.776-0.686 0.923-1.425 0.086-0.358 0.128-1.024 0.128-1.994l0.16-15.572c-0.34-0.274-0.84-0.549-1.498-0.823-0.64-0.17-1.097-0.311-1.548-0.465l0.178 0.053c-0.511-0.125-0.754-0.294-0.732-0.506 0.020-0.253 0.191-0.38 0.509-0.38h3.822c1.444 0.022 2.272 0.090 2.484 0.205 0.211 0.118 0.531 0.671 0.956 1.664l6.785 15.793 7.327-17.187c0.127-0.316 0.413-0.474 0.859-0.474h5.225c0.319 0 0.489 0.125 0.509 0.379 0.020 0.211-0.223 0.38-0.732 0.506-0.872 0.253-1.327 0.392-1.37 0.412-0.701 0.296-1.052 1.436-1.052 3.418v12.978c0 1.984 0.351 3.123 1.052 3.418 0.042 0.022 0.498 0.159 1.37 0.412 0.509 0.128 0.753 0.296 0.732 0.507zM162.322 16.157c0-1.755-0.288-3.192-0.861-4.315-0.742-1.459-1.901-2.189-3.471-2.189-1.572 0-2.729 0.751-3.471 2.253-0.573 1.121-0.86 2.548-0.86 4.284 0 1.691 0.287 3.098 0.86 4.219 0.764 1.439 1.921 2.158 3.471 2.158 1.571 0 2.729-0.719 3.471-2.158 0.573-1.12 0.861-2.538 0.861-4.252zM165.379 15.968c0 2.157-0.7 3.955-2.102 5.393-1.402 1.439-3.186 2.157-5.352 2.157s-3.918-0.677-5.254-2.030c-1.34-1.354-2.008-3.119-2.008-5.297 0-2.157 0.701-3.933 2.103-5.33 1.4-1.395 3.186-2.093 5.352-2.093 2.058 0 3.785 0.687 5.176 2.061 1.39 1.375 2.085 3.087 2.085 5.139zM192.87 22.632c-0.022 0.253-0.192 0.379-0.511 0.379h-6.88c-0.319 0-0.489-0.125-0.509-0.379-0.020-0.168 0.223-0.315 0.732-0.443 0.658-0.147 1.12-0.31 1.386-0.488 0.265-0.179 0.398-1.311 0.398-3.395v-4.105c0-1.284-0.159-2.221-0.477-2.81-0.425-0.8-1.243-1.201-2.454-1.201-1.019 0-1.891 0.311-2.611 0.932-0.723 0.622-1.083 1.384-1.083 2.29v4.893c0.020 1.262 0.031 1.957 0.031 2.084 0.044 0.758 0.17 1.199 0.383 1.326 0.211 0.127 0.669 0.273 1.37 0.442 0.509 0.127 0.753 0.284 0.733 0.474-0.022 0.253-0.192 0.379-0.509 0.379h-6.881c-0.319 0-0.489-0.125-0.509-0.379-0.022-0.168 0.223-0.315 0.732-0.443 0.658-0.147 1.119-0.31 1.386-0.488 0.265-0.179 0.398-1.311 0.398-3.395v-4.105c0-1.284-0.159-2.221-0.479-2.81-0.424-0.8-1.242-1.201-2.452-1.201-1.020 0-1.889 0.311-2.611 0.932-0.722 0.622-1.083 1.384-1.083 2.29v4.893c0 2.125 0.137 3.263 0.413 3.41 0.148 0.084 0.604 0.221 1.37 0.41 0.509 0.147 0.754 0.316 0.733 0.506-0.023 0.253-0.192 0.379-0.509 0.379h-6.881c-0.319 0-0.489-0.127-0.509-0.38-0.022-0.168 0.233-0.305 0.763-0.411 0.659-0.128 1.116-0.301 1.371-0.522s0.383-1.357 0.383-3.404v-6.044c0-0.571-0.052-0.945-0.16-1.124-0.106-0.179-0.425-0.269-0.956-0.269-0.806 0-1.21-0.128-1.21-0.38 0-0.274 0.253-0.465 0.763-0.57 1.23-0.253 2.44-0.602 3.626-1.046 0.192-0.041 0.319-0.063 0.383-0.063 0.191 0 0.307 0.138 0.351 0.412 0.019 0.189 0.041 0.728 0.063 1.613 0.466-0.602 1.149-1.088 2.052-1.463 0.821-0.355 1.778-0.561 2.782-0.562h0c2.207 0 3.585 0.813 4.137 2.438 1.272-1.626 3.053-2.438 5.344-2.438 1.74 0 2.938 0.474 3.596 1.421 0.721 1.033 1.080 2.653 1.080 4.864v3.222c0 1.199 0.012 1.894 0.032 2.084 0.044 0.759 0.17 1.201 0.383 1.327 0.212 0.125 0.669 0.273 1.371 0.442 0.508 0.127 0.753 0.284 0.732 0.474zM195.718 21.203c-0.069-0.023-0.148-0.036-0.23-0.036-0.010 0-0.021 0-0.031 0.001l0.001-0h-0.109v0.494h0.175c0.006 0 0.014 0.001 0.022 0.001 0.082 0 0.159-0.024 0.223-0.066l-0.002 0.001c0.059-0.041 0.088-0.109 0.088-0.201s-0.046-0.157-0.138-0.192zM194.903 22.566v-1.697h0.475c0.212 0 0.329 0.003 0.353 0.004 0.134 0.009 0.247 0.038 0.337 0.087 0.152 0.083 0.228 0.218 0.228 0.406 0 0.142-0.040 0.246-0.12 0.307-0.082 0.064-0.183 0.105-0.294 0.115l-0.002 0c0.092 0.015 0.174 0.049 0.244 0.1l-0.002-0.001c0.101 0.081 0.151 0.207 0.151 0.381v0.151c0 0.036 0.006 0.070 0.017 0.102l-0.001-0.002 0.015 0.047h-0.428c-0.016-0.069-0.026-0.15-0.028-0.233l-0-0.002c0-0.002 0-0.004 0-0.006 0-0.072-0.010-0.141-0.030-0.206l0.001 0.005c-0.021-0.059-0.067-0.104-0.124-0.125l-0.001-0c-0.045-0.016-0.097-0.026-0.152-0.027h-0l-0.099-0.006h-0.095v0.602h-0.447zM194.673 20.827c-0.228 0.222-0.369 0.532-0.369 0.874 0 0.004 0 0.009 0 0.013v-0.001c0 0.356 0.125 0.657 0.375 0.905 0.248 0.248 0.548 0.371 0.9 0.371 0.005 0 0.012 0 0.018 0 0.345 0 0.657-0.143 0.879-0.374l0-0c0.23-0.225 0.373-0.538 0.373-0.885 0-0.006-0-0.012-0-0.018v0.001c0-0.003 0-0.006 0-0.010 0-0.344-0.142-0.655-0.371-0.877l-0-0c-0.222-0.236-0.536-0.383-0.885-0.383-0.005 0-0.010 0-0.015 0h0.001c-0.355 0-0.657 0.128-0.906 0.384zM196.658 22.813c-0.271 0.268-0.643 0.433-1.054 0.433-0.009 0-0.017-0-0.026-0l0.001 0c-0.010 0-0.022 0-0.033 0-0.416 0-0.792-0.169-1.063-0.443l-0-0c-0.275-0.268-0.446-0.642-0.446-1.056 0-0.011 0-0.022 0-0.033l-0 0.002c0-0.448 0.161-0.82 0.481-1.116 0.301-0.278 0.655-0.416 1.061-0.416 0.425 0 0.788 0.148 1.089 0.448s0.452 0.662 0.452 1.083c0 0.435-0.154 0.801-0.462 1.101z"></path>
        </symbol>
        <symbol id="icon-m" viewBox="0 0 64 32">
            <path fill="#8491a0" style="fill: var(--color1, #8491a0)"
                d="M44.576 10.459c0.235 0 0.466-0.015 0.692-0.046l8.853 12.876c-0.822 0.92-1.325 2.141-1.325 3.479 0 2.888 2.341 5.23 5.23 5.23s5.23-2.341 5.23-5.23c0-2.888-2.341-5.23-5.23-5.23-0.689 0-1.346 0.133-1.948 0.375l0.035-0.012-8.498-12.416c1.333-0.96 2.191-2.508 2.191-4.257 0-2.888-2.341-5.23-5.23-5.23s-5.23 2.341-5.23 5.23c0 1.815 0.924 3.413 2.328 4.351l0.019 0.012-8.421 12.213c-0.492-0.169-1.058-0.266-1.647-0.266-0.513 0-1.009 0.074-1.477 0.212l0.037-0.009-8.375-12.149c1.422-0.95 2.346-2.548 2.346-4.363 0-2.888-2.341-5.23-5.23-5.23s-5.23 2.341-5.23 5.23c0 1.741 0.851 3.283 2.159 4.233l0.015 0.010-8.613 12.475c-0.599-0.259-1.297-0.41-2.030-0.41-2.888 0-5.23 2.341-5.23 5.23s2.341 5.23 5.23 5.23c2.888 0 5.23-2.341 5.23-5.23 0-1.263-0.448-2.422-1.194-3.326l0.007 0.009 8.963-13.038c0.207 0.029 0.446 0.045 0.689 0.045 0.165 0 0.328-0.008 0.489-0.022l-0.021 0.002 8.67 12.504c-1.026 0.957-1.666 2.318-1.666 3.828 0 2.888 2.341 5.23 5.23 5.23s5.23-2.341 5.23-5.23c0-1.437-0.579-2.738-1.517-3.683l0 0 8.771-12.648c0.154 0.012 0.309 0.020 0.466 0.020z"></path>
        </symbol>
        <symbol id="icon-Frame-16" viewBox="0 0 32 32">
            <path fill="#5221e6"
                d="M29.828 8.236H26.9l-.673-3.034a2.794 2.794 0 0 0-2.746-2.201H13.317c-1.33 0-2.459.905-2.746 2.201l-.673 3.034h-.695V6.941c0-.73-.595-1.323-1.325-1.323H3.592c-.731 0-1.325.594-1.325 1.323v1.295h-.094a2.173 2.173 0 0 0-2.172 2.169v14.688c0 1.196.975 2.169 2.172 2.169h10.075c1.773 1.147 3.886 1.814 6.152 1.814s4.378-.667 6.151-1.814h5.278a2.173 2.173 0 0 0 2.172-2.169V10.405a2.173 2.173 0 0 0-2.172-2.169zM11.79 5.471c.16-.72.787-1.223 1.526-1.223H23.48c.739 0 1.366.503 1.526 1.223l.613 2.765h-1.07c-1.773-1.147-3.886-1.814-6.151-1.814s-4.378.667-6.152 1.814h-1.07l.613-2.765zm-8.274 1.47c0-.042.034-.075.075-.075h4.286c.042 0 .075.034.075.075v1.295H3.515V6.941zm1.503 19.072v-6.777a.624.624 0 0 0-1.25 0v6.777H2.172a.922.922 0 0 1-.922-.921V10.404c0-.508.414-.921.922-.921h8.477c-2.212 2.068-3.597 5.008-3.597 8.265s1.385 6.197 3.597 8.265H5.018zm19.15 0a10.083 10.083 0 0 1-11.542 0c-2.613-1.823-4.325-4.848-4.325-8.265s1.712-6.441 4.325-8.265a10.083 10.083 0 0 1 11.542 0c2.613 1.823 4.325 4.848 4.325 8.265s-1.712 6.441-4.325 8.265zm6.581-.921a.923.923 0 0 1-.922.921h-3.68c2.212-2.068 3.597-5.008 3.597-8.265s-1.385-6.197-3.597-8.265h3.68c.509 0 .922.413.922.921v14.688z"
                style="fill:var(--color5, #5221e6)" />
            <path fill="#5221e6"
                d="M18.37 10.111c-4.248 0-7.704 3.456-7.704 7.704s3.456 7.704 7.704 7.704c.619 0 1.235-.074 1.831-.219a.586.586 0 1 0-.278-1.14 6.537 6.537 0 0 1-8.083-6.344 6.537 6.537 0 0 1 6.53-6.53 6.537 6.537 0 0 1 6.53 6.53 6.488 6.488 0 0 1-1.121 3.659.586.586 0 1 0 .972.659 7.662 7.662 0 0 0 1.323-4.318c0-4.248-3.456-7.704-7.704-7.704zM4.741 11.296c-1.307 0-2.37 1.063-2.37 2.37s1.063 2.37 2.37 2.37c1.307 0 2.37-1.063 2.37-2.37s-1.063-2.37-2.37-2.37zm0 3.468a1.098 1.098 0 0 1 0-2.194 1.098 1.098 0 0 1 0 2.194z"
                style="fill:var(--color5, #5221e6)" />
            <path fill="#5221e6"
                d="M23.692 23.625a.644.644 0 0 0-.089-.213.532.532 0 0 0-.163-.164.595.595 0 0 0-.658 0c-.032.022-.062.047-.09.074s-.052.057-.073.09a.625.625 0 0 0-.089.213.571.571 0 0 0 .089.445.532.532 0 0 0 .163.163.595.595 0 0 0 .748-.073.597.597 0 0 0 .162-.535z"
                style="fill:var(--color5, #5221e6)" />
        </symbol>
        <symbol id="icon-Group-62" viewBox="0 0 32 32">
            <path fill="none" stroke="#5221e6" stroke-width="2"
                d="M31 16c0 8.284-6.716 15-15 15S1 24.284 1 16C1 7.716 7.716 1 16 1s15 6.716 15 15z"
                style="stroke:var(--color5, #5221e6)" />
            <path fill="#5221e6" d="m21 16-7.5 4.33v-8.66L21 16z"
                style="fill:var(--color5, #5221e6)" />
        </symbol>
        <symbol id="icon-Group-20" viewBox="0 0 32 32">
            <path fill="#5221e6"
                d="m17.221 1.2 13.578 13.578 1.2-1.2L18.421 0l-1.2 1.2zM19.234 7.601a2.546 2.546 0 0 0-2.803-.54L7.008 11.1a4.227 4.227 0 0 0-2.352 2.56 469.703 469.703 0 0 0-2.981 9.346A130.81 130.81 0 0 0 .5 27.045c-.148.552-.27 1.036-.355 1.427-.079.364-.144.723-.144.981v.352l2.194 2.194h.352c.259 0 .617-.065.981-.144.391-.085.875-.206 1.427-.355 1.105-.297 2.51-.709 4.039-1.175a467.62 467.62 0 0 0 9.346-2.981 4.23 4.23 0 0 0 2.56-2.352l4.039-9.423a2.546 2.546 0 0 0-.54-2.803l-5.164-5.164zm-2.135 1.021a.848.848 0 0 1 .934.18l5.164 5.164a.848.848 0 0 1 .18.934l-4.039 9.424a2.528 2.528 0 0 1-1.531 1.408 467.251 467.251 0 0 1-9.31 2.97c-1.522.464-2.906.87-3.984 1.16-.539.145-.994.258-1.347.335l-.207.043 8.671-8.672a2.547 2.547 0 0 0 2.898-4.098 2.546 2.546 0 0 0-4.098 2.898L1.758 29.04c.012-.063.027-.132.043-.207.077-.353.19-.808.335-1.347a129.78 129.78 0 0 1 1.16-3.984 467.251 467.251 0 0 1 2.97-9.31 2.528 2.528 0 0 1 1.408-1.531l9.424-4.039z"
                style="fill:var(--color5, #5221e6)" />
        </symbol>
        <symbol id="icon-Vector-3" viewBox="0 0 32 32">
            <path fill="#5221e6"
                d="M30.222 23.111v7.111H17.778v-7.111h12.444zm0-21.333V16H17.778V1.778h12.444zM10.667 16H1.778v14.222h8.889V16zm0-14.222v7.111H1.778V1.778h8.889zM17.778 0C16.796 0 16 .796 16 1.778V16c0 .982.796 1.778 1.778 1.778h12.444c.982 0 1.778-.796 1.778-1.778V1.778C32 .796 31.204 0 30.222 0H17.778zm0 21.333c-.982 0-1.778.796-1.778 1.778v7.111c0 .982.796 1.778 1.778 1.778h12.444c.982 0 1.778-.796 1.778-1.778v-7.111c0-.982-.796-1.778-1.778-1.778H17.778zM0 16c0-.982.796-1.778 1.778-1.778h8.889c.982 0 1.778.796 1.778 1.778v14.222c0 .982-.796 1.778-1.778 1.778H1.778A1.778 1.778 0 0 1 0 30.222V16zM1.778 0C.796 0 0 .796 0 1.778v7.111c0 .982.796 1.778 1.778 1.778h8.889c.982 0 1.778-.796 1.778-1.778V1.778C12.445.796 11.649 0 10.667 0H1.778z"
                style="fill:var(--color5, #5221e6)" />
        </symbol>
        <symbol id="icon-Vector-6" viewBox="0 0 105 32">
            <path fill="#fff" style="fill: var(--color1, #fff)"
                d="M6.48 31.6h-6.48v-31.6h7.24c1.493 0 2.707 0.080 3.64 0.24 0.96 0.133 1.707 0.427 2.24 0.88s0.893 1.107 1.080 1.96c0.213 0.827 0.32 1.947 0.32 3.36v3.28c0 0.827-0.093 1.507-0.28 2.040s-0.427 0.96-0.72 1.28c-0.267 0.32-0.56 0.56-0.88 0.72-0.32 0.133-0.613 0.227-0.88 0.28v0.16c0.4 0.107 0.76 0.267 1.080 0.48 0.347 0.187 0.64 0.48 0.88 0.88s0.427 0.933 0.56 1.6c0.16 0.64 0.24 1.467 0.24 2.48v11.96h-6.52v-14c0-0.347-0.040-0.573-0.12-0.68-0.080-0.133-0.293-0.2-0.64-0.2h-0.76v14.88zM6.48 11.64h0.76c0.347 0 0.56-0.053 0.64-0.16 0.080-0.133 0.12-0.373 0.12-0.72v-4.32c0-0.347-0.040-0.573-0.12-0.68-0.080-0.133-0.293-0.2-0.64-0.2h-0.76v6.080zM29.702 26.92c0 1.12-0.093 2.013-0.28 2.68-0.16 0.667-0.48 1.187-0.96 1.56-0.453 0.347-1.093 0.573-1.92 0.68-0.8 0.107-1.853 0.16-3.16 0.16-1.28 0-2.333-0.053-3.16-0.16s-1.467-0.333-1.92-0.68c-0.453-0.373-0.773-0.893-0.96-1.56-0.16-0.667-0.24-1.56-0.24-2.68v-14.6c0-1.12 0.080-2.013 0.24-2.68 0.187-0.667 0.507-1.173 0.96-1.52 0.453-0.373 1.093-0.613 1.92-0.72s1.88-0.16 3.16-0.16c1.307 0 2.36 0.053 3.16 0.16 0.827 0.107 1.467 0.347 1.92 0.72 0.48 0.347 0.8 0.853 0.96 1.52 0.187 0.667 0.28 1.56 0.28 2.68v14.6zM22.662 25.8c0 0.347 0.040 0.587 0.12 0.72 0.080 0.107 0.28 0.16 0.6 0.16 0.347 0 0.56-0.053 0.64-0.16 0.080-0.133 0.12-0.373 0.12-0.72v-12.36c0-0.347-0.040-0.573-0.12-0.68-0.080-0.133-0.293-0.2-0.64-0.2-0.32 0-0.52 0.067-0.6 0.2-0.080 0.107-0.12 0.333-0.12 0.68v12.36zM38.298 0v8.72c0.347-0.48 0.773-0.813 1.28-1 0.533-0.187 1.187-0.28 1.96-0.28s1.4 0.093 1.88 0.28c0.48 0.16 0.84 0.427 1.080 0.8 0.267 0.373 0.44 0.88 0.52 1.52 0.107 0.613 0.16 1.373 0.16 2.28v14.6c0 0.933-0.053 1.72-0.16 2.36-0.080 0.613-0.253 1.107-0.52 1.48s-0.653 0.64-1.16 0.8c-0.507 0.16-1.16 0.24-1.96 0.24-0.907 0-1.64-0.093-2.2-0.28-0.56-0.213-0.987-0.547-1.28-1v1.080h-5.32v-31.6h5.72zM39.618 13.44c0-0.32-0.040-0.547-0.12-0.68-0.053-0.133-0.227-0.2-0.52-0.2-0.267 0-0.467 0.053-0.6 0.16-0.107 0.080-0.187 0.213-0.24 0.4v13c0.053 0.187 0.133 0.333 0.24 0.44 0.133 0.080 0.333 0.12 0.6 0.12 0.293 0 0.467-0.067 0.52-0.2 0.080-0.133 0.12-0.36 0.12-0.68v-12.36zM53.807 4.16h-5.68v-4.16h5.68v4.16zM53.807 31.6h-5.68v-23.96h5.68v23.96zM70.071 31.6h-5.76v-18.16c0-0.32-0.040-0.547-0.12-0.68-0.054-0.133-0.227-0.2-0.52-0.2-0.267 0-0.467 0.053-0.6 0.16-0.107 0.080-0.2 0.213-0.28 0.4v18.48h-5.72v-23.96h5.32v1.080c0.293-0.453 0.72-0.773 1.28-0.96 0.56-0.213 1.293-0.32 2.2-0.32 0.8 0 1.466 0.080 2 0.24 0.56 0.16 1 0.427 1.32 0.8s0.546 0.88 0.68 1.52c0.133 0.613 0.2 1.387 0.2 2.32v19.28zM78.925 31.6h-5.8v-5.64h5.8v5.64zM104.573 0l-3.28 31.6h-8.16l-1.080-22.92h-0.16l-1.32 22.92h-8.28l-2.44-31.6h6.52l0.68 22.16h0.16l0.96-22.16h8l0.68 22.16h0.16l1-22.16h6.56z"></path>
        </symbol>
    </defs>
</svg>